<!DOCTYPE svg PUBLIC "-//W3C//DTD SVG 1.1//EN" "http://www.w3.org/Graphics/SVG/1.1/DTD/svg11.dtd">
<!-- Uploaded to: SVG Repo, www.svgrepo.com, Transformed by: SVG Repo Mixer Tools -->
<svg width="800px" height="800px" viewBox="0 0 24 24" fill="none" xmlns="http://www.w3.org/2000/svg">
<g id="SVGRepo_bgCarrier" stroke-width="0"/>
<g id="SVGRepo_tracerCarrier" stroke-linecap="round" stroke-linejoin="round"/>
<g id="SVGRepo_iconCarrier"> <path d="M7 16H8M11.5 16H12.5M16 16H17M18.4 20H5.6C5.03995 20 4.75992 20 4.54601 19.891C4.35785 19.7951 4.20487 19.6422 4.10899 19.454C4 19.2401 4 18.9601 4 18.4V4.8C4 4.51997 4 4.37996 4.0545 4.273C4.10243 4.17892 4.17892 4.10243 4.273 4.0545C4.37996 4 4.51997 4 4.8 4H7.2C7.48003 4 7.62004 4 7.727 4.0545C7.82108 4.10243 7.89757 4.17892 7.9455 4.273C8 4.37996 8 4.51997 8 4.8V9.06863C8 9.67445 8 9.97735 8.1198 10.1176C8.22374 10.2393 8.37967 10.3039 8.53923 10.2914C8.72312 10.2769 8.93731 10.0627 9.36569 9.63431L12.6343 6.36569C13.0627 5.93731 13.2769 5.72312 13.4608 5.70865C13.6203 5.69609 13.7763 5.76068 13.8802 5.88238C14 6.02265 14 6.32556 14 6.93137V9.06863C14 9.67445 14 9.97735 14.1198 10.1176C14.2237 10.2393 14.3797 10.3039 14.5392 10.2914C14.7231 10.2769 14.9373 10.0627 15.3657 9.63431L18.6343 6.36569C19.0627 5.93731 19.2769 5.72312 19.4608 5.70865C19.6203 5.69609 19.7763 5.76068 19.8802 5.88238C20 6.02265 20 6.32556 20 6.93137V18.4C20 18.9601 20 19.2401 19.891 19.454C19.7951 19.6422 19.6422 19.7951 19.454 19.891C19.2401 20 18.9601 20 18.4 20Z" stroke="#ffffff" stroke-width="2" stroke-linecap="round"/> </g>
</svg>