<!DOCTYPE svg PUBLIC "-//W3C//DTD SVG 1.1//EN" "http://www.w3.org/Graphics/SVG/1.1/DTD/svg11.dtd">
<!-- Uploaded to: SVG Repo, www.svgrepo.com, Transformed by: SVG Repo Mixer Tools -->
<svg width="800px" height="800px" viewBox="0 0 64 64" xmlns="http://www.w3.org/2000/svg" fill="#ffffff" stroke="#ffffff">
<g id="SVGRepo_bgCarrier" stroke-width="0"/>
<g id="SVGRepo_tracerCarrier" stroke-linecap="round" stroke-linejoin="round"/>
<g id="SVGRepo_iconCarrier"> <defs> <style>.cls-1{fill:none;}.cls-1,.cls-2{stroke:#ffffff;stroke-linecap:round;stroke-linejoin:round;stroke-width:2px;}.cls-2{fill:#a9ba5a;}</style> </defs> <g id="economy"> <circle cx="9.0992" cy="17.5232" r="1.0691"/> <path class="cls-1" d="M19.9761,30H18A13,13,0,0,0,5,43v2a12.9906,12.9906,0,0,0,7,11.5256V61h6l1-2c.4241.0383,21,0,21,0l1,2h5V57c4.4894-1.7581,8.1065-5.1434,9-10l4-2V38H54a14.196,14.196,0,0,0-6-6.3035V25a8.687,8.687,0,0,0-8,5H36.0509"/> <circle cx="46.5" cy="37.5" r="1.5"/> <line class="cls-2" x1="16" x2="40" y1="34" y2="34"/> <circle class="cls-1" cx="27.9999" cy="24" r="10"/> <line class="cls-1" x1="32" x2="24" y1="19" y2="29"/> <circle class="cls-1" cx="24.5" cy="20.5" r="1.5"/> <circle class="cls-1" cx="31.5" cy="27.5" r="1.5"/> <circle class="cls-1" cx="43" cy="12" r="2"/> <path class="cls-1" d="M29.25,54.0671l4.9163-3.9331a2.0742,2.0742,0,0,0,.5845-2.598,2.001,2.001,0,0,0-3-.5919l-1.75,1.4V40.5056a2,2,0,0,0-2-2h0a2,2,0,0,0-2,2v7.8389l-1.6462-1.317a2.1129,2.1129,0,0,0-2.9407.2609,2,2,0,0,0,.3374,2.7787l5,4A2,2,0,0,0,29.25,54.0671Z"/> <line class="cls-1" x1="49.5509" x2="52.5509" y1="17.0547" y2="20.0547"/> <line class="cls-1" x1="52.5509" x2="49.5509" y1="17.0547" y2="20.0547"/> </g> </g>
</svg>